{"title":"Diamond - Got Alot Of Money [KingPinVideos]","uid":5809532,"size":78442200,"categoryP":"video","categoryS":"music_videos","magnet":"?xt=urn:btih:4d1692d587b6c6eeac5292d767284e687c54b0a7&amp;dn=Diamond+-+Got+Alot+Of+Money+%5BKingPinVideos%5D&amp;tr=udp%3A%2F%2Ftracker.openbittorrent.com%3A80&amp;tr=udp%3A%2F%2Fopen.demonii.com%3A1337&amp;tr=udp%3A%2F%2Ftracker.coppersurfer.tk%3A6969&amp;tr=udp%3A%2F%2Fexodus.desync.com%3A6969","seeders":0,"leechers":0,"uploader":"KingPinMan","files":5,"time":1283575643,"description":"[img]http://a.imageshack.us/img412/7112/diamondmoney.png[/img]\n\n[img]http://a.imageshack.us/img205/2801/diamondmoney2.png[/img]\n\n[code]General\nComplete name                    : Diamond - Got Alot Of Money [KingPinVideos].mpg\nFormat                           : MPEG-PS\nFile size                        : 74.8 MiB\nDuration                         : 3mn 39s\nOverall bit rate                 : 2 856 Kbps\nWriting library                  : encoded by TMPGEnc 4.0 XPress Version. 4.7.4.299\n\nVideo\nID                               : 224 (0xE0)\nFormat                           : MPEG Video\nFormat version                   : Version 1\nFormat settings, BVOP            : Yes\nFormat settings, Matrix          : Default\nDuration                         : 3mn 39s\nBit rate mode                    : Constant\nBit rate                         : 2 615 Kbps\nNominal bit rate                 : 2 700 Kbps\nWidth                            : 384 pixels\nHeight                           : 208 pixels\nDisplay aspect ratio             : 16:9\nFrame rate                       : 29.970 fps\nResolution                       : 8 bits\nScan type                        : Progressive\nBits/(Pixel*Frame)               : 1.092\nStream size                      : 68.5 MiB (92%)\nWriting library                  : TMPGEnc XPress 4.7.4.299\n\nAudio\nID                               : 192 (0xC0)\nFormat                           : MPEG Audio\nFormat version                   : Version 1\nFormat profile                   : Layer 2\nDuration                         : 3mn 39s\nBit rate mode                    : Constant\nBit rate                         : 128 Kbps\nChannel(s)                       : 2 channels\nSampling rate                    : 48.0 KHz\nStream size                      : 3.35 MiB (4%[/code]","torrent":{"xt":"urn:btih:4d1692d587b6c6eeac5292d767284e687c54b0a7","amp;dn":"Diamond+-+Got+Alot+Of+Money+%5BKingPinVideos%5D","amp;tr":["udp%3A%2F%2Ftracker.openbittorrent.com%3A80","udp%3A%2F%2Fopen.demonii.com%3A1337","udp%3A%2F%2Ftracker.coppersurfer.tk%3A6969","udp%3A%2F%2Fexodus.desync.com%3A6969"],"infoHash":"4d1692d587b6c6eeac5292d767284e687c54b0a7","infoHashBuffer":{"type":"Buffer","data":[77,22,146,213,135,182,198,238,172,82,146,215,103,40,78,104,124,84,176,167]},"announce":[],"urlList":[]}}